<svg width="42" height="42" viewBox="0 0 42 42" fill="none" xmlns="http://www.w3.org/2000/svg">
<circle cx="20.7568" cy="20.7568" r="20.7568" fill="#C4ECD9"/>
<path d="M28.6046 22.4684C28.5922 20.1915 29.6221 18.4731 31.7066 17.2075C30.5402 15.5386 28.7783 14.6205 26.4519 14.4406C24.2495 14.2669 21.8424 15.7248 20.9615 15.7248C20.0309 15.7248 17.8967 14.5026 16.2217 14.5026C12.7599 14.5584 9.08105 17.2633 9.08105 22.7661C9.08105 24.3916 9.37884 26.0707 9.97441 27.8037C10.7685 30.0805 13.6347 35.664 16.625 35.5709C18.1883 35.5337 19.2926 34.4604 21.3275 34.4604C23.3003 34.4604 24.324 35.5709 26.0672 35.5709C29.0823 35.5275 31.6755 30.4527 32.4324 28.1697C28.3875 26.2651 28.6046 22.5862 28.6046 22.4684ZM25.0932 12.2816C26.7869 10.2716 26.6318 8.44142 26.5822 7.78381C25.087 7.87067 23.3562 8.80125 22.3697 9.94896C21.2841 11.1773 20.6451 12.6973 20.7815 14.4095C22.4008 14.5336 23.8773 13.7023 25.0932 12.2816Z" fill="black"/>
</svg>
