<svg width="42" height="42" viewBox="0 0 42 42" fill="none" xmlns="http://www.w3.org/2000/svg">
<circle cx="20.7568" cy="20.7568" r="20.7568" fill="#C4ECD9"/>
<path d="M32.2054 18.47H31.265V18.4216H20.7569V23.0919H27.3554C26.3927 25.8105 23.806 27.7621 20.7569 27.7621C16.8881 27.7621 13.7514 24.6255 13.7514 20.7567C13.7514 16.888 16.8881 13.7513 20.7569 13.7513C22.5426 13.7513 24.1673 14.425 25.4044 15.5254L28.7068 12.223C26.6215 10.2796 23.8322 9.08105 20.7569 9.08105C14.309 9.08105 9.08118 14.3088 9.08118 20.7567C9.08118 27.2046 14.309 32.4324 20.7569 32.4324C27.2047 32.4324 32.4325 27.2046 32.4325 20.7567C32.4325 19.9739 32.352 19.2097 32.2054 18.47Z" fill="#FFC107"/>
<path d="M10.4274 15.3223L14.2634 18.1355C15.3014 15.5657 17.8152 13.7513 20.7568 13.7513C22.5426 13.7513 24.1673 14.425 25.4043 15.5254L28.7068 12.223C26.6215 10.2796 23.8322 9.08105 20.7568 9.08105C16.2722 9.08105 12.383 11.6129 10.4274 15.3223Z" fill="#FF3D00"/>
<path d="M20.7568 32.4324C23.7726 32.4324 26.5129 31.2783 28.5848 29.4014L24.9712 26.3436C23.7989 27.2315 22.3418 27.7622 20.7568 27.7622C17.72 27.7622 15.1414 25.8257 14.17 23.1234L10.3625 26.0569C12.2949 29.8381 16.2191 32.4324 20.7568 32.4324Z" fill="#4CAF50"/>
<path d="M32.2054 18.4701H31.2649V18.4216H20.7568V23.0919H27.3553C26.893 24.3978 26.0529 25.5239 24.9694 26.3442C24.97 26.3436 24.9706 26.3436 24.9712 26.343L28.5848 29.4009C28.3291 29.6332 32.4325 26.5946 32.4325 20.7568C32.4325 19.9739 32.3519 19.2097 32.2054 18.4701Z" fill="#1976D2"/>
</svg>
